# xmcd
#
# Track frame offsets: 
#        150
#        26380
#        42608
#        60637
#        77085
#        97921
#        117029
#        138836
#
# Disc length: 1978 seconds
#
# Revision: 2
# Processed by: cddbd v1.5.2PL0 Copyright (c) Steve Scherf et al.
# Submitted via: ExactAudioCopyFreeDBPlugin 1.0
#
DISCID=5c07b808
DTITLE=Cuby and The Blizzards - Kid Blue
DYEAR=1976
DGENRE=Blues
TTITLE0=Kid Blue
TTITLE1=Goin To The City
TTITLE2=E.S.P.
TTITLE3=Perfect Song
TTITLE4=Maybe We Need
TTITLE5=Lonely Pain
TTITLE6=Never Get Out Off These Blues Alive
TTITLE7=(There Ain't No Real) Perfection
EXTD=ID3G:   0
EXTT0=
EXTT1=
EXTT2=
EXTT3=
EXTT4=
EXTT5=
EXTT6=
EXTT7=
PLAYORDER=
